{
	"asset":{
		"generator":"Khronos glTF Blender I/O v3.6.28",
		"version":"2.0"
	},
	"extensionsUsed":[
		"KHR_materials_specular",
		"KHR_materials_ior"
	],
	"scene":0,
	"scenes":[
		{
			"name":"Scene",
			"nodes":[
				0,
				1,
				2,
				3,
				4,
				5
			]
		}
	],
	"nodes":[
		{
			"mesh":0,
			"name":"Golden_diamond_gem",
			"rotation":[
				-0.03975224867463112,
				-0.24156397581100464,
				0.00703791668638587,
				0.9695448875427246
			],
			"scale":[
				0.20000000298023224,
				0.20000000298023224,
				0.20000000298023224
			],
			"translation":[
				-0.3517773151397705,
				0.03925934061408043,
				-0.009548597037792206
			]
		},
		{
			"mesh":1,
			"name":"Silver_drop_gem",
			"rotation":[
				-0.03562074899673462,
				-0.13829158246517181,
				0.019835704937577248,
				0.9895520210266113
			],
			"scale":[
				0.20000000298023224,
				0.20000000298023224,
				0.20000000298023224
			],
			"translation":[
				0.06483900547027588,
				0.024562569335103035,
				-0.5733674764633179
			]
		},
		{
			"mesh":2,
			"name":"Silver_camera_gem",
			"rotation":[
				0,
				0.08456861227750778,
				0,
				0.996417760848999
			],
			"scale":[
				0.20000000298023224,
				0.20000000298023224,
				0.20000000298023224
			],
			"translation":[
				0.22842159867286682,
				0.010580940172076225,
				0.027198195457458496
			]
		},
		{
			"mesh":3,
			"name":"Silver_diamond_gem",
			"rotation":[
				0,
				-0.2935090959072113,
				0,
				0.9559562802314758
			],
			"scale":[
				0.20000000298023224,
				0.20000000298023224,
				0.20000000298023224
			],
			"translation":[
				-0.3308529853820801,
				0.016311628744006157,
				0.1574908196926117
			]
		},
		{
			"mesh":4,
			"name":"Golden_drop_gem",
			"rotation":[
				0,
				0.23394861817359924,
				0,
				0.9722489714622498
			],
			"scale":[
				0.20000000298023224,
				0.20000000298023224,
				0.20000000298023224
			],
			"translation":[
				0.0058120302855968475,
				0.013740671798586845,
				-0.35449254512786865
			]
		},
		{
			"mesh":5,
			"name":"Golden_camera_gem",
			"rotation":[
				-0.056127917021512985,
				-0.2556494474411011,
				0.003885081969201565,
				0.9651311635971069
			],
			"scale":[
				0.20000001788139343,
				0.20000000298023224,
				0.19999998807907104
			],
			"translation":[
				0.43557268381118774,
				0.018072504550218582,
				-0.13251854479312897
			]
		}
	],
	"materials":[
		{
			"doubleSided":true,
			"extensions":{
				"KHR_materials_specular":{
					"specularColorFactor":[
						1.1672485483851534,
						1.1672485483851534,
						1.1672485483851534
					]
				},
				"KHR_materials_ior":{
					"ior":1.4500000476837158
				}
			},
			"name":"Material.002",
			"pbrMetallicRoughness":{
				"baseColorFactor":[
					1,
					0.5006614923477173,
					0.09477133303880692,
					1
				],
				"roughnessFactor":0
			}
		},
		{
			"doubleSided":true,
			"name":"Material.003",
			"pbrMetallicRoughness":{
				"baseColorFactor":[
					0.72304368019104,
					0.72304368019104,
					0.72304368019104,
					1
				],
				"roughnessFactor":0
			}
		}
	],
	"meshes":[
		{
			"name":"Plane",
			"primitives":[
				{
					"attributes":{
						"POSITION":0,
						"NORMAL":1,
						"TEXCOORD_0":2
					},
					"indices":3,
					"material":0
				}
			]
		},
		{
			"name":"Plane.001",
			"primitives":[
				{
					"attributes":{
						"POSITION":4,
						"NORMAL":5,
						"TEXCOORD_0":6
					},
					"indices":7,
					"material":1
				}
			]
		},
		{
			"name":"Plane.002",
			"primitives":[
				{
					"attributes":{
						"POSITION":8,
						"NORMAL":9,
						"TEXCOORD_0":10
					},
					"indices":11,
					"material":1
				}
			]
		},
		{
			"name":"Plane.003",
			"primitives":[
				{
					"attributes":{
						"POSITION":12,
						"NORMAL":13,
						"TEXCOORD_0":14
					},
					"indices":3,
					"material":1
				}
			]
		},
		{
			"name":"Plane.004",
			"primitives":[
				{
					"attributes":{
						"POSITION":15,
						"NORMAL":16,
						"TEXCOORD_0":17
					},
					"indices":7,
					"material":0
				}
			]
		},
		{
			"name":"Plane.005",
			"primitives":[
				{
					"attributes":{
						"POSITION":18,
						"NORMAL":19,
						"TEXCOORD_0":20
					},
					"indices":11,
					"material":0
				}
			]
		}
	],
	"accessors":[
		{
			"bufferView":0,
			"componentType":5126,
			"count":1298,
			"max":[
				1.2836644649505615,
				0.040000006556510925,
				1.0084139108657837
			],
			"min":[
				-1.154606580734253,
				-0.040000006556510925,
				-0.9715471863746643
			],
			"type":"VEC3"
		},
		{
			"bufferView":1,
			"componentType":5126,
			"count":1298,
			"type":"VEC3"
		},
		{
			"bufferView":2,
			"componentType":5126,
			"count":1298,
			"type":"VEC2"
		},
		{
			"bufferView":3,
			"componentType":5123,
			"count":7188,
			"type":"SCALAR"
		},
		{
			"bufferView":4,
			"componentType":5126,
			"count":1477,
			"max":[
				0.6191430687904358,
				0.040000010281801224,
				0.8973129987716675
			],
			"min":[
				-0.39585384726524353,
				-0.040000006556510925,
				-0.7983042001724243
			],
			"type":"VEC3"
		},
		{
			"bufferView":5,
			"componentType":5126,
			"count":1477,
			"type":"VEC3"
		},
		{
			"bufferView":6,
			"componentType":5126,
			"count":1477,
			"type":"VEC2"
		},
		{
			"bufferView":7,
			"componentType":5123,
			"count":8196,
			"type":"SCALAR"
		},
		{
			"bufferView":8,
			"componentType":5126,
			"count":5609,
			"max":[
				0.8660856485366821,
				0.04736688733100891,
				0.727500855922699
			],
			"min":[
				-0.8634145855903625,
				-0.036435700953006744,
				-0.7262428998947144
			],
			"type":"VEC3"
		},
		{
			"bufferView":9,
			"componentType":5126,
			"count":5609,
			"type":"VEC3"
		},
		{
			"bufferView":10,
			"componentType":5126,
			"count":5609,
			"type":"VEC2"
		},
		{
			"bufferView":11,
			"componentType":5123,
			"count":31956,
			"type":"SCALAR"
		},
		{
			"bufferView":12,
			"componentType":5126,
			"count":1298,
			"max":[
				1.2836644649505615,
				0.040000006556510925,
				1.0084139108657837
			],
			"min":[
				-1.154606580734253,
				-0.040000006556510925,
				-0.9715471863746643
			],
			"type":"VEC3"
		},
		{
			"bufferView":13,
			"componentType":5126,
			"count":1298,
			"type":"VEC3"
		},
		{
			"bufferView":14,
			"componentType":5126,
			"count":1298,
			"type":"VEC2"
		},
		{
			"bufferView":15,
			"componentType":5126,
			"count":1477,
			"max":[
				0.6191430687904358,
				0.040000010281801224,
				0.8973129987716675
			],
			"min":[
				-0.39585384726524353,
				-0.040000006556510925,
				-0.7983042001724243
			],
			"type":"VEC3"
		},
		{
			"bufferView":16,
			"componentType":5126,
			"count":1477,
			"type":"VEC3"
		},
		{
			"bufferView":17,
			"componentType":5126,
			"count":1477,
			"type":"VEC2"
		},
		{
			"bufferView":18,
			"componentType":5126,
			"count":5609,
			"max":[
				0.8660856485366821,
				0.04736688733100891,
				0.727500855922699
			],
			"min":[
				-0.8634145855903625,
				-0.036435700953006744,
				-0.7262428998947144
			],
			"type":"VEC3"
		},
		{
			"bufferView":19,
			"componentType":5126,
			"count":5609,
			"type":"VEC3"
		},
		{
			"bufferView":20,
			"componentType":5126,
			"count":5609,
			"type":"VEC2"
		}
	],
	"bufferViews":[
		{
			"buffer":0,
			"byteLength":15576,
			"byteOffset":0,
			"target":34962
		},
		{
			"buffer":0,
			"byteLength":15576,
			"byteOffset":15576,
			"target":34962
		},
		{
			"buffer":0,
			"byteLength":10384,
			"byteOffset":31152,
			"target":34962
		},
		{
			"buffer":0,
			"byteLength":14376,
			"byteOffset":41536,
			"target":34963
		},
		{
			"buffer":0,
			"byteLength":17724,
			"byteOffset":55912,
			"target":34962
		},
		{
			"buffer":0,
			"byteLength":17724,
			"byteOffset":73636,
			"target":34962
		},
		{
			"buffer":0,
			"byteLength":11816,
			"byteOffset":91360,
			"target":34962
		},
		{
			"buffer":0,
			"byteLength":16392,
			"byteOffset":103176,
			"target":34963
		},
		{
			"buffer":0,
			"byteLength":67308,
			"byteOffset":119568,
			"target":34962
		},
		{
			"buffer":0,
			"byteLength":67308,
			"byteOffset":186876,
			"target":34962
		},
		{
			"buffer":0,
			"byteLength":44872,
			"byteOffset":254184,
			"target":34962
		},
		{
			"buffer":0,
			"byteLength":63912,
			"byteOffset":299056,
			"target":34963
		},
		{
			"buffer":0,
			"byteLength":15576,
			"byteOffset":362968,
			"target":34962
		},
		{
			"buffer":0,
			"byteLength":15576,
			"byteOffset":378544,
			"target":34962
		},
		{
			"buffer":0,
			"byteLength":10384,
			"byteOffset":394120,
			"target":34962
		},
		{
			"buffer":0,
			"byteLength":17724,
			"byteOffset":404504,
			"target":34962
		},
		{
			"buffer":0,
			"byteLength":17724,
			"byteOffset":422228,
			"target":34962
		},
		{
			"buffer":0,
			"byteLength":11816,
			"byteOffset":439952,
			"target":34962
		},
		{
			"buffer":0,
			"byteLength":67308,
			"byteOffset":451768,
			"target":34962
		},
		{
			"buffer":0,
			"byteLength":67308,
			"byteOffset":519076,
			"target":34962
		},
		{
			"buffer":0,
			"byteLength":44872,
			"byteOffset":586384,
			"target":34962
		}
	],
	"buffers":[
		{
			"byteLength":631256,
			"uri":"data:application/octet-stream;base64,"
		}
	]
}
