{
	"asset":{
		"generator":"Khronos glTF Blender I/O v3.6.28",
		"version":"2.0"
	},
	"scene":0,
	"scenes":[
		{
			"name":"Scene",
			"nodes":[
				5
			]
		}
	],
	"nodes":[
		{
			"mesh":0,
			"name":"Mug1_Coffee_0"
		},
		{
			"mesh":1,
			"name":"Mug1_Mug_0"
		},
		{
			"children":[
				0,
				1
			],
			"name":"Mug1",
			"scale":[
				0.5,
				0.5,
				0.5
			]
		},
		{
			"children":[
				2
			],
			"name":"RootNode"
		},
		{
			"children":[
				3
			],
			"name":"f5823088d6e847dd88d1c6b10b93a01f.fbx",
			"rotation":[
				0.70710688829422,
				0,
				0,
				0.7071066498756409
			]
		},
		{
			"children":[
				4
			],
			"name":"Sketchfab_model",
			"rotation":[
				-0.70710688829422,
				0,
				0,
				0.7071066498756409
			]
		}
	],
	"materials":[
		{
			"doubleSided":true,
			"name":"Coffee.001",
			"pbrMetallicRoughness":{
				"baseColorTexture":{
					"index":0
				},
				"metallicFactor":0,
				"metallicRoughnessTexture":{
					"index":1
				},
				"roughnessFactor":0.17854420840740204
			}
		},
		{
			"doubleSided":true,
			"name":"material.001",
			"pbrMetallicRoughness":{
				"baseColorFactor":[
					0.9480519890785217,
					0.9480519890785217,
					0.9480519890785217,
					1
				],
				"metallicFactor":0,
				"roughnessFactor":0.03830030560493469
			}
		}
	],
	"meshes":[
		{
			"name":"Mug1_Coffee_0.001",
			"primitives":[
				{
					"attributes":{
						"POSITION":0,
						"NORMAL":1,
						"TEXCOORD_0":2
					},
					"indices":3,
					"material":0
				}
			]
		},
		{
			"name":"Mug1_Mug_0",
			"primitives":[
				{
					"attributes":{
						"POSITION":4,
						"NORMAL":5,
						"TEXCOORD_0":6
					},
					"indices":7,
					"material":1
				}
			]
		}
	],
	"textures":[
		{
			"sampler":0,
			"source":0
		},
		{
			"sampler":0,
			"source":1
		}
	],
	"images":[
		{
			"bufferView":4,
			"mimeType":"image/png",
			"name":"Image_0"
		},
		{
			"bufferView":5,
			"mimeType":"image/png",
			"name":"Image_1"
		}
	],
	"accessors":[
		{
			"bufferView":0,
			"componentType":5126,
			"count":42,
			"max":[
				9.343685150146484,
				27.647701263427734,
				-6.674416542053223
			],
			"min":[
				6.989686489105225,
				27.647701263427734,
				-9.028416633605957
			],
			"type":"VEC3"
		},
		{
			"bufferView":1,
			"componentType":5126,
			"count":42,
			"type":"VEC3"
		},
		{
			"bufferView":2,
			"componentType":5126,
			"count":42,
			"type":"VEC2"
		},
		{
			"bufferView":3,
			"componentType":5123,
			"count":120,
			"type":"SCALAR"
		},
		{
			"bufferView":6,
			"componentType":5126,
			"count":576,
			"max":[
				9.461471557617188,
				28.21235466003418,
				-6.556631088256836
			],
			"min":[
				6.681535720825195,
				25.28728485107422,
				-9.730109214782715
			],
			"type":"VEC3"
		},
		{
			"bufferView":7,
			"componentType":5126,
			"count":576,
			"type":"VEC3"
		},
		{
			"bufferView":8,
			"componentType":5126,
			"count":576,
			"type":"VEC2"
		},
		{
			"bufferView":9,
			"componentType":5123,
			"count":2976,
			"type":"SCALAR"
		}
	],
	"bufferViews":[
		{
			"buffer":0,
			"byteLength":504,
			"byteOffset":0,
			"target":34962
		},
		{
			"buffer":0,
			"byteLength":504,
			"byteOffset":504,
			"target":34962
		},
		{
			"buffer":0,
			"byteLength":336,
			"byteOffset":1008,
			"target":34962
		},
		{
			"buffer":0,
			"byteLength":240,
			"byteOffset":1344,
			"target":34963
		},
		{
			"buffer":0,
			"byteLength":428310,
			"byteOffset":1584
		},
		{
			"buffer":0,
			"byteLength":154719,
			"byteOffset":429896
		},
		{
			"buffer":0,
			"byteLength":6912,
			"byteOffset":584616,
			"target":34962
		},
		{
			"buffer":0,
			"byteLength":6912,
			"byteOffset":591528,
			"target":34962
		},
		{
			"buffer":0,
			"byteLength":4608,
			"byteOffset":598440,
			"target":34962
		},
		{
			"buffer":0,
			"byteLength":5952,
			"byteOffset":603048,
			"target":34963
		}
	],
	"samplers":[
		{
			"magFilter":9729,
			"minFilter":9987
		}
	],
	"buffers":[
		{
			"byteLength":609000,
			"uri":"data:application/octet-stream;base64,"
		}
	]
}
