{
  "accessors": [
    {
      "bufferView": 2,
      "componentType": 5126,
      "count": 2208,
      "max": [
        0.11232630908489227,
        -0.009339330717921257,
        0.13717380166053772
      ],
      "min": [
        -0.11005275696516037,
        -0.009733207523822784,
        -0.1517842411994934
      ],
      "type": "VEC3"
    },
    {
      "bufferView": 2,
      "byteOffset": 26496,
      "componentType": 5126,
      "count": 2208,
      "max": [
        0.9944390058517456,
        0.10548581928014755,
        1.0
      ],
      "min": [
        -0.996004045009613,
        -1.0,
        -1.0
      ],
      "type": "VEC3"
    },
    {
      "bufferView": 1,
      "componentType": 5126,
      "count": 2208,
      "max": [
        0.5149561762809753,
        0.5788189172744751
      ],
      "min": [
        0.015498459339141846,
        0.016189634799957275
      ],
      "type": "VEC2"
    },
    {
      "bufferView": 0,
      "componentType": 5125,
      "count": 3384,
      "type": "SCALAR"
    },
    {
      "bufferView": 2,
      "byteOffset": 52992,
      "componentType": 5126,
      "count": 2142,
      "max": [
        0.11238928139209747,
        0.009300710633397102,
        0.13717380166053772
      ],
      "min": [
        -0.11005275696516037,
        0.008311238139867783,
        -0.1517842411994934
      ],
      "type": "VEC3"
    },
    {
      "bufferView": 2,
      "byteOffset": 78696,
      "componentType": 5126,
      "count": 2142,
      "max": [
        0.9944514036178589,
        1.0,
        1.0
      ],
      "min": [
        -0.9962775111198425,
        -0.1056978777050972,
        -1.0
      ],
      "type": "VEC3"
    },
    {
      "bufferView": 1,
      "byteOffset": 17664,
      "componentType": 5126,
      "count": 2142,
      "max": [
        0.9778634309768677,
        0.5746904611587524
      ],
      "min": [
        0.46254825592041016,
        0.00975489616394043
      ],
      "type": "VEC2"
    },
    {
      "bufferView": 0,
      "byteOffset": 13536,
      "componentType": 5125,
      "count": 3384,
      "type": "SCALAR"
    },
    {
      "bufferView": 2,
      "byteOffset": 104400,
      "componentType": 5126,
      "count": 5204,
      "max": [
        0.11299030482769012,
        0.008515743538737297,
        0.13717380166053772
      ],
      "min": [
        -0.11001075804233551,
        -0.009339340031147003,
        -0.1517842411994934
      ],
      "type": "VEC3"
    },
    {
      "bufferView": 2,
      "byteOffset": 166848,
      "componentType": 5126,
      "count": 5204,
      "max": [
        0.9994319677352905,
        0.10553468018770218,
        1.0
      ],
      "min": [
        -0.9994428753852844,
        -0.10566429048776627,
        -1.0
      ],
      "type": "VEC3"
    },
    {
      "bufferView": 1,
      "byteOffset": 34800,
      "componentType": 5126,
      "count": 5204,
      "max": [
        0.5858663320541382,
        0.9774271249771118
      ],
      "min": [
        0.022574961185455322,
        0.5931769013404846
      ],
      "type": "VEC2"
    },
    {
      "bufferView": 0,
      "byteOffset": 27072,
      "componentType": 5125,
      "count": 8160,
      "type": "SCALAR"
    },
    {
      "bufferView": 2,
      "byteOffset": 229296,
      "componentType": 5126,
      "count": 7073,
      "max": [
        -0.09294971078634262,
        0.015617849305272102,
        0.13195374608039856
      ],
      "min": [
        -0.12418772280216217,
        -0.015621183440089226,
        -0.15007023513317108
      ],
      "type": "VEC3"
    },
    {
      "bufferView": 2,
      "byteOffset": 314172,
      "componentType": 5126,
      "count": 7073,
      "max": [
        1.0,
        0.9999926686286926,
        0.9922321438789368
      ],
      "min": [
        -0.9999979138374329,
        -0.9999927282333374,
        -0.9922134280204773
      ],
      "type": "VEC3"
    },
    {
      "bufferView": 1,
      "byteOffset": 76432,
      "componentType": 5126,
      "count": 7073,
      "max": [
        0.9268732070922852,
        0.9740846753120422
      ],
      "min": [
        0.6489882469177246,
        0.6061832308769226
      ],
      "type": "VEC2"
    },
    {
      "bufferView": 0,
      "byteOffset": 59712,
      "componentType": 5125,
      "count": 37248,
      "type": "SCALAR"
    }
  ],
  "asset": {
    "extras": {
      "author": "Full Barrel Productions (https://sketchfab.com/Full_Barrel_Production)",
      "license": "CC-BY-4.0 (http://creativecommons.org/licenses/by/4.0/)",
      "source": "https://sketchfab.com/3d-models/spiral-notebook-e803910f62cc40d2a2f5668e657fd1cf",
      "title": "Spiral Notebook"
    },
    "generator": "Sketchfab-14.81.0",
    "version": "2.0"
  },
  "bufferViews": [
    {
      "buffer": 0,
      "byteLength": 208704,
      "name": "floatBufferViews",
      "target": 34963
    },
    {
      "buffer": 0,
      "byteLength": 133016,
      "byteOffset": 208704,
      "byteStride": 8,
      "name": "floatBufferViews",
      "target": 34962
    },
    {
      "buffer": 0,
      "byteLength": 399048,
      "byteOffset": 341720,
      "byteStride": 12,
      "name": "floatBufferViews",
      "target": 34962
    }
  ],
  "buffers": [
    {
      "byteLength": 740768,
      "uri": "scene.bin"
    }
  ],
  "extensionsUsed": [
    "KHR_materials_specular"
  ],
  "materials": [
    {
      "doubleSided": true,
      "name": "Spiral_Notebook_Cover",
      "pbrMetallicRoughness": {
        "baseColorFactor": [
          0.0176664,
          0.0,
          1.0,
          1.0
        ],
        "metallicFactor": 0.0,
        "roughnessFactor": 0.9890871357106933
      }
    },
    {
      "doubleSided": true,
      "name": "Spiral_Notebook_Backboard",
      "pbrMetallicRoughness": {
        "baseColorFactor": [
          0.233014,
          0.0988277,
          0.036283,
          1.0
        ],
        "metallicFactor": 0.0,
        "roughnessFactor": 0.9880120470327086
      }
    },
    {
      "doubleSided": true,
      "name": "Paper",
      "pbrMetallicRoughness": {
        "baseColorFactor": [
          0.8,
          0.8,
          0.8,
          1.0
        ],
        "metallicFactor": 0.0,
        "roughnessFactor": 0.8851249302150221
      }
    },
    {
      "doubleSided": true,
      "extensions": {
        "KHR_materials_specular": {
          "specularColorFactor": [
            1.0,
            1.0,
            1.0
          ],
          "specularFactor": 1.0
        }
      },
      "name": "Spiral_Chome",
      "pbrMetallicRoughness": {
        "baseColorFactor": [
          0.8,
          0.8,
          0.8,
          1.0
        ],
        "roughnessFactor": 0.7572642448265468
      }
    }
  ],
  "meshes": [
    {
      "name": "Spiral_Notebook_Spiral Notebook Cover_0",
      "primitives": [
        {
          "attributes": {
            "NORMAL": 1,
            "POSITION": 0,
            "TEXCOORD_0": 2
          },
          "indices": 3,
          "material": 0,
          "mode": 4
        }
      ]
    },
    {
      "name": "Spiral_Notebook_Spiral Notebook Backboard_0",
      "primitives": [
        {
          "attributes": {
            "NORMAL": 5,
            "POSITION": 4,
            "TEXCOORD_0": 6
          },
          "indices": 7,
          "material": 1,
          "mode": 4
        }
      ]
    },
    {
      "name": "Spiral_Notebook_Paper_0",
      "primitives": [
        {
          "attributes": {
            "NORMAL": 9,
            "POSITION": 8,
            "TEXCOORD_0": 10
          },
          "indices": 11,
          "material": 2,
          "mode": 4
        }
      ]
    },
    {
      "name": "Spiral_Notebook_Spiral Chome_0",
      "primitives": [
        {
          "attributes": {
            "NORMAL": 13,
            "POSITION": 12,
            "TEXCOORD_0": 14
          },
          "indices": 15,
          "material": 3,
          "mode": 4
        }
      ]
    }
  ],
  "nodes": [
    {
      "children": [
        1
      ],
      "matrix": [
        1.0,
        0.0,
        0.0,
        0.0,
        0.0,
        2.220446049250313e-16,
        -1.0,
        0.0,
        0.0,
        1.0,
        2.220446049250313e-16,
        0.0,
        0.0,
        0.0,
        0.0,
        1.0
      ],
      "name": "Sketchfab_model"
    },
    {
      "children": [
        2
      ],
      "matrix": [
        0.009999999776482582,
        0.0,
        0.0,
        0.0,
        0.0,
        0.0,
        0.009999999776482582,
        0.0,
        0.0,
        -0.009999999776482582,
        0.0,
        0.0,
        0.0,
        0.0,
        0.0,
        1.0
      ],
      "name": "Spiral Notebook.fbx"
    },
    {
      "children": [
        3
      ],
      "name": "RootNode"
    },
    {
      "children": [
        4,
        5,
        6,
        7
      ],
      "matrix": [
        100.0,
        0.0,
        0.0,
        0.0,
        0.0,
        -1.629206793918314e-05,
        -99.99999999999868,
        0.0,
        0.0,
        99.99999999999868,
        -1.629206793918314e-05,
        0.0,
        0.0,
        0.0,
        0.0,
        1.0
      ],
      "name": "Spiral_Notebook"
    },
    {
      "mesh": 0,
      "name": "Spiral_Notebook_Spiral Notebook Cover_0"
    },
    {
      "mesh": 1,
      "name": "Spiral_Notebook_Spiral Notebook Backboard_0"
    },
    {
      "mesh": 2,
      "name": "Spiral_Notebook_Paper_0"
    },
    {
      "mesh": 3,
      "name": "Spiral_Notebook_Spiral Chome_0"
    }
  ],
  "scene": 0,
  "scenes": [
    {
      "name": "Sketchfab_Scene",
      "nodes": [
        0
      ]
    }
  ]
}
