{
	"asset":{
		"generator":"Khronos glTF Blender I/O v3.6.28",
		"version":"2.0"
	},
	"extensionsUsed":[
		"KHR_materials_transmission",
		"KHR_materials_specular",
		"KHR_materials_ior"
	],
	"scene":0,
	"scenes":[
		{
			"name":"Scene",
			"nodes":[
				0
			]
		}
	],
	"nodes":[
		{
			"mesh":0,
			"name":"Spiral_Notebook",
			"rotation":[
				0.7071068286895752,
				0,
				0,
				0.7071068286895752
			]
		}
	],
	"materials":[
		{
			"alphaMode":"BLEND",
			"doubleSided":true,
			"extensions":{
				"KHR_materials_transmission":{
					"transmissionFactor":1
				},
				"KHR_materials_specular":{
					"specularColorFactor":[
						1,
						1,
						1
					]
				},
				"KHR_materials_ior":{
					"ior":0
				}
			},
			"name":"Spiral_Notebook_Cover",
			"pbrMetallicRoughness":{
				"baseColorFactor":[
					0,
					0,
					0,
					1
				],
				"metallicFactor":0
			}
		},
		{
			"alphaMode":"BLEND",
			"doubleSided":true,
			"extensions":{
				"KHR_materials_transmission":{
					"transmissionFactor":1
				},
				"KHR_materials_specular":{
					"specularColorFactor":[
						1,
						1,
						1
					]
				},
				"KHR_materials_ior":{
					"ior":0
				}
			},
			"name":"Spiral_Notebook_Backboard",
			"pbrMetallicRoughness":{
				"baseColorFactor":[
					0,
					0,
					0,
					1
				],
				"metallicFactor":0
			}
		},
		{
			"alphaMode":"BLEND",
			"doubleSided":true,
			"extensions":{
				"KHR_materials_transmission":{
					"transmissionFactor":1
				},
				"KHR_materials_specular":{
					"specularColorFactor":[
						1,
						1,
						1
					]
				},
				"KHR_materials_ior":{
					"ior":0
				}
			},
			"name":"Paper",
			"pbrMetallicRoughness":{
				"baseColorFactor":[
					0,
					0,
					0,
					1
				],
				"metallicFactor":0
			}
		},
		{
			"alphaMode":"BLEND",
			"doubleSided":true,
			"extensions":{
				"KHR_materials_transmission":{
					"transmissionFactor":1
				},
				"KHR_materials_specular":{
					"specularColorFactor":[
						1,
						1,
						1
					]
				},
				"KHR_materials_ior":{
					"ior":0
				}
			},
			"name":"Spiral_Chome",
			"pbrMetallicRoughness":{
				"baseColorFactor":[
					0,
					0,
					0,
					1
				],
				"metallicFactor":0
			}
		},
		{
			"alphaMode":"BLEND",
			"doubleSided":true,
			"extensions":{
				"KHR_materials_transmission":{
					"transmissionFactor":1
				},
				"KHR_materials_specular":{
					"specularColorFactor":[
						1,
						1,
						1
					]
				},
				"KHR_materials_ior":{
					"ior":0
				}
			},
			"name":"rubberSG",
			"pbrMetallicRoughness":{
				"baseColorFactor":[
					0,
					0,
					0,
					1
				],
				"metallicFactor":0
			}
		}
	],
	"meshes":[
		{
			"name":"Spiral_Notebook",
			"primitives":[
				{
					"attributes":{
						"POSITION":0,
						"NORMAL":1,
						"TEXCOORD_0":2
					},
					"indices":3,
					"material":0
				},
				{
					"attributes":{
						"POSITION":4,
						"NORMAL":5,
						"TEXCOORD_0":6
					},
					"indices":7,
					"material":1
				},
				{
					"attributes":{
						"POSITION":8,
						"NORMAL":9,
						"TEXCOORD_0":10
					},
					"indices":11,
					"material":2
				},
				{
					"attributes":{
						"POSITION":12,
						"NORMAL":13,
						"TEXCOORD_0":14
					},
					"indices":15,
					"material":3
				},
				{
					"attributes":{
						"POSITION":16,
						"NORMAL":17,
						"TEXCOORD_0":18
					},
					"indices":19,
					"material":4
				}
			]
		}
	],
	"accessors":[
		{
			"bufferView":0,
			"componentType":5126,
			"count":2208,
			"max":[
				2.044167995452881,
				-0.5416100025177002,
				-0.7343389987945557
			],
			"min":[
				-2.002793073654175,
				-5.800206184387207,
				-0.7415069937705994
			],
			"type":"VEC3"
		},
		{
			"bufferView":1,
			"componentType":5126,
			"count":2208,
			"type":"VEC3"
		},
		{
			"bufferView":2,
			"componentType":5126,
			"count":2208,
			"type":"VEC2"
		},
		{
			"bufferView":3,
			"componentType":5123,
			"count":3384,
			"type":"SCALAR"
		},
		{
			"bufferView":4,
			"componentType":5126,
			"count":2142,
			"max":[
				2.045314073562622,
				-0.5416100025177002,
				-0.3951190114021301
			],
			"min":[
				-2.002793073654175,
				-5.800206184387207,
				-0.41312599182128906
			],
			"type":"VEC3"
		},
		{
			"bufferView":5,
			"componentType":5126,
			"count":2142,
			"type":"VEC3"
		},
		{
			"bufferView":6,
			"componentType":5126,
			"count":2142,
			"type":"VEC2"
		},
		{
			"bufferView":7,
			"componentType":5123,
			"count":3384,
			"type":"SCALAR"
		},
		{
			"bufferView":8,
			"componentType":5126,
			"count":5204,
			"max":[
				2.056251049041748,
				-0.5416100025177002,
				-0.4094040095806122
			],
			"min":[
				-2.002027988433838,
				-5.800206184387207,
				-0.7343389987945557
			],
			"type":"VEC3"
		},
		{
			"bufferView":9,
			"componentType":5126,
			"count":5204,
			"type":"VEC3"
		},
		{
			"bufferView":10,
			"componentType":5126,
			"count":5204,
			"type":"VEC2"
		},
		{
			"bufferView":11,
			"componentType":5123,
			"count":8160,
			"type":"SCALAR"
		},
		{
			"bufferView":12,
			"componentType":5126,
			"count":7073,
			"max":[
				-1.6915429830551147,
				-0.5728020071983337,
				-0.2801559865474701
			],
			"min":[
				-2.2600269317626953,
				-5.705208778381348,
				-0.8486589789390564
			],
			"type":"VEC3"
		},
		{
			"bufferView":13,
			"componentType":5126,
			"count":7073,
			"type":"VEC3"
		},
		{
			"bufferView":14,
			"componentType":5126,
			"count":7073,
			"type":"VEC2"
		},
		{
			"bufferView":15,
			"componentType":5123,
			"count":37248,
			"type":"SCALAR"
		},
		{
			"bufferView":16,
			"componentType":5126,
			"count":7936,
			"max":[
				1.697052001953125,
				-0.39591699838638306,
				-0.24942399561405182
			],
			"min":[
				1.5527360439300537,
				-5.947047233581543,
				-0.8934969902038574
			],
			"type":"VEC3"
		},
		{
			"bufferView":17,
			"componentType":5126,
			"count":7936,
			"type":"VEC3"
		},
		{
			"bufferView":18,
			"componentType":5126,
			"count":7936,
			"type":"VEC2"
		},
		{
			"bufferView":19,
			"componentType":5123,
			"count":27654,
			"type":"SCALAR"
		}
	],
	"bufferViews":[
		{
			"buffer":0,
			"byteLength":26496,
			"byteOffset":0,
			"target":34962
		},
		{
			"buffer":0,
			"byteLength":26496,
			"byteOffset":26496,
			"target":34962
		},
		{
			"buffer":0,
			"byteLength":17664,
			"byteOffset":52992,
			"target":34962
		},
		{
			"buffer":0,
			"byteLength":6768,
			"byteOffset":70656,
			"target":34963
		},
		{
			"buffer":0,
			"byteLength":25704,
			"byteOffset":77424,
			"target":34962
		},
		{
			"buffer":0,
			"byteLength":25704,
			"byteOffset":103128,
			"target":34962
		},
		{
			"buffer":0,
			"byteLength":17136,
			"byteOffset":128832,
			"target":34962
		},
		{
			"buffer":0,
			"byteLength":6768,
			"byteOffset":145968,
			"target":34963
		},
		{
			"buffer":0,
			"byteLength":62448,
			"byteOffset":152736,
			"target":34962
		},
		{
			"buffer":0,
			"byteLength":62448,
			"byteOffset":215184,
			"target":34962
		},
		{
			"buffer":0,
			"byteLength":41632,
			"byteOffset":277632,
			"target":34962
		},
		{
			"buffer":0,
			"byteLength":16320,
			"byteOffset":319264,
			"target":34963
		},
		{
			"buffer":0,
			"byteLength":84876,
			"byteOffset":335584,
			"target":34962
		},
		{
			"buffer":0,
			"byteLength":84876,
			"byteOffset":420460,
			"target":34962
		},
		{
			"buffer":0,
			"byteLength":56584,
			"byteOffset":505336,
			"target":34962
		},
		{
			"buffer":0,
			"byteLength":74496,
			"byteOffset":561920,
			"target":34963
		},
		{
			"buffer":0,
			"byteLength":95232,
			"byteOffset":636416,
			"target":34962
		},
		{
			"buffer":0,
			"byteLength":95232,
			"byteOffset":731648,
			"target":34962
		},
		{
			"buffer":0,
			"byteLength":63488,
			"byteOffset":826880,
			"target":34962
		},
		{
			"buffer":0,
			"byteLength":55308,
			"byteOffset":890368,
			"target":34963
		}
	],
	"buffers":[
		{
			"byteLength":945676,
			"uri":"notebook_model.bin"
		}
	]
}
